<?xml version="1.0" encoding="UTF-8"?>
<svg id="Layer_2" data-name="Layer 2" xmlns="http://www.w3.org/2000/svg" viewBox="0 0 119.24 89.4">
  <defs>
    <style>
      .cls-1 {
        fill: #fff;
      }
    </style>
  </defs>
  <g id="Layer_1-2" data-name="Layer 1">
    <g>
      <g>
        <path class="cls-1" d="m40.54,78.58c.32-.73,1.04-1.19,1.83-1.19h2.73c.79,0,1.51.47,1.83,1.19l.81,1.84c.16-.12.32-.24.48-.36v-.67c0-1.08.86-1.97,1.93-2,.15-.64.42-1.21.8-1.69.63-.79,1.51-1.26,2.52-1.35,2.19-3.57,3.28-7.48,3.28-11.74,0-6.57-2.32-11.83-6.95-15.77-4.63-3.94-11.78-5.91-21.43-5.91h-4.63l.89-10.05h27.79v-15.08H8.47l-3.45,40.31h18.72c4.99,0,8.47.59,10.45,1.77,1.97,1.18,2.96,2.92,2.96,5.22s-1,4.09-3.01,5.37c-2,1.28-4.68,1.92-8.03,1.92s-6.69-.49-10-1.48c-3.32-.99-6.36-2.4-9.12-4.24l-7,14.68c3.42,2.17,7.5,3.84,12.27,5.03,4.76,1.18,9.57,1.77,14.44,1.77,4.08,0,7.75-.41,11.02-1.21l2.81-6.36Z"/>
        <path class="cls-1" d="m115.35,31.02c-2.6-5.42-6.19-9.54-10.79-12.37-4.6-2.82-9.82-4.24-15.67-4.24s-11.17,1.41-15.77,4.24c-4.6,2.83-8.2,6.95-10.79,12.37-2.6,5.42-3.89,11.84-3.89,19.27s1.3,13.85,3.89,19.27c1.41,2.95,3.12,5.51,5.12,7.69,1,.11,1.93.39,2.78.84.64.34,1.21.76,1.7,1.26.53-.66,1.24-1.19,2.12-1.57.9-.39,1.97-.58,3.19-.58.79,0,1.59.09,2.36.27.82.19,1.57.48,2.22.86.86.51,1.22,1.57.83,2.5,0,0-.86,2.08-.86,2.08.13.12.25.24.37.37.42.47.91,1.24,1.03,2.42,1.83.32,3.73.47,5.71.47,5.85,0,11.07-1.41,15.67-4.24,4.6-2.82,8.19-6.95,10.79-12.37,2.59-5.42,3.89-11.84,3.89-19.27s-1.3-13.85-3.89-19.27Zm-18.63,34.39c-1.94,3.19-4.55,4.78-7.83,4.78s-6-1.59-7.93-4.78c-1.94-3.19-2.91-8.23-2.91-15.13s.97-11.94,2.91-15.13c1.94-3.19,4.58-4.78,7.93-4.78s5.9,1.59,7.83,4.78c1.94,3.19,2.91,8.23,2.91,15.13s-.97,11.94-2.91,15.13Z"/>
      </g>
      <g>
        <path class="cls-1" d="m45.79,87.3h-4.15l-.77,1.91h-2.83l4.33-9.82h2.73l4.35,9.82h-2.89l-.77-1.91Zm-.81-2.05l-1.26-3.14-1.26,3.14h2.52Z"/>
        <path class="cls-1" d="m59.58,79.39v9.82h-2.29l-4.33-5.23v5.23h-2.72v-9.82h2.29l4.33,5.23v-5.23h2.72Zm-4.26-.85c-.2-.1-.42-.23-.67-.4-.18-.12-.31-.21-.4-.25-.09-.05-.18-.07-.27-.07-.19,0-.34.07-.45.2-.11.13-.18.31-.2.55h-1.3c.02-.68.19-1.22.5-1.63.32-.4.74-.6,1.28-.6.25,0,.48.05.67.14.2.09.42.22.67.39.18.12.31.21.4.25.09.05.18.07.27.07.19,0,.34-.06.45-.19.11-.13.18-.3.2-.51h1.3c-.02.66-.19,1.2-.5,1.6-.32.4-.74.6-1.28.6-.25,0-.48-.05-.68-.15Z"/>
        <path class="cls-1" d="m63.69,88.74c-.83-.44-1.48-1.05-1.95-1.82-.47-.78-.71-1.65-.71-2.62s.24-1.85.71-2.62c.47-.78,1.12-1.38,1.95-1.82.83-.44,1.76-.66,2.8-.66s1.97.22,2.8.66c.83.44,1.48,1.05,1.95,1.82.47.78.71,1.65.71,2.62s-.24,1.85-.71,2.62c-.47.78-1.12,1.38-1.95,1.82-.83.44-1.76.66-2.8.66s-1.97-.22-2.8-.66Zm4.14-1.99c.4-.23.72-.56.95-.99.23-.43.35-.91.35-1.47s-.12-1.04-.35-1.47c-.23-.43-.55-.75-.95-.99-.4-.23-.85-.35-1.35-.35s-.94.12-1.35.35c-.4.23-.72.56-.95.99-.23.43-.35.91-.35,1.47s.12,1.04.35,1.47c.23.43.55.76.95.99.4.23.85.35,1.35.35s.94-.12,1.35-.35Z"/>
        <path class="cls-1" d="m74.54,89.1c-.75-.2-1.36-.46-1.82-.79l.91-2.05c.44.29.95.52,1.53.7.58.18,1.15.27,1.71.27,1.07,0,1.6-.27,1.6-.8,0-.28-.15-.49-.46-.62-.3-.14-.79-.28-1.47-.43-.74-.16-1.36-.33-1.85-.51-.5-.18-.92-.47-1.28-.88-.36-.4-.53-.94-.53-1.63,0-.6.16-1.14.49-1.62.33-.48.82-.86,1.47-1.14.65-.28,1.45-.42,2.39-.42.65,0,1.28.07,1.91.22.63.15,1.18.36,1.65.64l-.86,2.06c-.93-.5-1.84-.76-2.72-.76-.55,0-.95.08-1.21.25-.25.16-.38.38-.38.64s.15.46.45.59c.3.13.78.27,1.44.41.75.16,1.37.33,1.86.51s.92.47,1.28.87c.36.4.54.94.54,1.62,0,.59-.16,1.12-.49,1.6-.33.48-.82.86-1.47,1.14-.65.29-1.45.43-2.38.43-.79,0-1.57-.1-2.31-.29Z"/>
      </g>
      <g>
        <path class="cls-1" d="m14.7,6.92h-1.42v2.44h-2.6V.18h4.2c.83,0,1.55.14,2.16.41.61.28,1.08.67,1.42,1.18.33.51.5,1.11.5,1.8s-.16,1.24-.47,1.74c-.31.49-.75.88-1.33,1.16l1.98,2.88h-2.78l-1.67-2.44Zm1.23-4.34c-.27-.24-.67-.35-1.21-.35h-1.44v2.69h1.44c.53,0,.94-.12,1.21-.35.27-.23.41-.56.41-.99s-.14-.76-.41-1Z"/>
        <path class="cls-1" d="m21.44,8.43c-.76-.74-1.13-1.8-1.13-3.16V.18h2.6v5.01c0,1.47.58,2.2,1.74,2.2s1.73-.73,1.73-2.2V.18h2.56v5.09c0,1.36-.38,2.42-1.13,3.16-.76.74-1.82,1.11-3.18,1.11s-2.42-.37-3.18-1.11Z"/>
        <path class="cls-1" d="m38.98,9.36l-.03-4.86-2.36,3.96h-1.15l-2.35-3.83v4.73h-2.4V.18h2.14l3.23,5.3L39.2.18h2.14l.03,9.18h-2.39Z"/>
        <path class="cls-1" d="m51.49,5.43c.3.39.45.86.45,1.41,0,.8-.32,1.42-.97,1.86-.65.44-1.58.66-2.81.66h-4.96V.18h4.69c1.17,0,2.06.22,2.67.65.61.43.92,1.02.92,1.75,0,.44-.11.83-.32,1.17-.21.35-.52.62-.91.82.52.18.94.47,1.23.86Zm-5.72-3.38v1.77h1.78c.87,0,1.31-.3,1.31-.89s-.44-.88-1.31-.88h-1.78Zm3.54,4.5c0-.62-.45-.93-1.36-.93h-2.18v1.86h2.18c.91,0,1.36-.31,1.36-.93Z"/>
        <path class="cls-1" d="m55.3,8.93c-.77-.41-1.38-.98-1.82-1.7-.44-.73-.66-1.54-.66-2.45s.22-1.73.66-2.45c.44-.73,1.05-1.29,1.82-1.7.77-.41,1.65-.62,2.62-.62s1.84.21,2.62.62c.77.41,1.38.98,1.82,1.7.44.73.66,1.54.66,2.45s-.22,1.73-.66,2.45c-.44.73-1.05,1.29-1.82,1.7-.77.41-1.65.62-2.62.62s-1.84-.21-2.62-.62Zm3.87-1.86c.38-.22.67-.53.89-.92.22-.4.33-.85.33-1.37s-.11-.97-.33-1.37c-.22-.4-.52-.71-.89-.92-.38-.22-.8-.33-1.26-.33s-.88.11-1.26.33c-.38.22-.67.53-.89.92-.22.4-.33.85-.33,1.37s.11.97.33,1.37c.22.4.52.71.89.92.38.22.8.33,1.26.33s.88-.11,1.26-.33Z"/>
        <path class="cls-1" d="m74.34,7.58h-3.88l-.72,1.78h-2.65L71.15.18h2.56l4.06,9.18h-2.7l-.72-1.78Zm-.76-1.91l-1.18-2.94-1.18,2.94h2.36Z"/>
        <path class="cls-1" d="m82.32.18h2.6v7.12h4.38v2.06h-6.98V.18Z"/>
        <path class="cls-1" d="m92.18,8.93c-.77-.41-1.38-.98-1.82-1.7-.44-.73-.66-1.54-.66-2.45s.22-1.73.66-2.45c.44-.73,1.05-1.29,1.82-1.7.77-.41,1.65-.62,2.62-.62s1.84.21,2.62.62c.77.41,1.38.98,1.82,1.7.44.73.66,1.54.66,2.45s-.22,1.73-.66,2.45c-.44.73-1.05,1.29-1.82,1.7-.77.41-1.65.62-2.62.62s-1.84-.21-2.62-.62Zm3.87-1.86c.38-.22.67-.53.89-.92.22-.4.33-.85.33-1.37s-.11-.97-.33-1.37c-.22-.4-.52-.71-.89-.92-.38-.22-.8-.33-1.26-.33s-.88.11-1.26.33c-.38.22-.67.53-.89.92-.22.4-.33.85-.33,1.37s.11.97.33,1.37c.22.4.52.71.89.92.38.22.8.33,1.26.33s.88-.11,1.26-.33Z"/>
        <path class="cls-1" d="m102.33,9.27c-.7-.18-1.27-.43-1.7-.73l.85-1.91c.41.27.89.49,1.43.66.54.17,1.08.25,1.6.25,1,0,1.49-.25,1.49-.75,0-.26-.14-.46-.43-.58-.28-.13-.74-.26-1.37-.4-.69-.15-1.27-.31-1.73-.48-.46-.17-.86-.44-1.19-.82-.33-.38-.5-.88-.5-1.52,0-.56.15-1.06.46-1.51.31-.45.76-.81,1.37-1.07.61-.26,1.35-.39,2.24-.39.6,0,1.2.07,1.78.2.59.14,1.1.33,1.55.6l-.8,1.93c-.87-.47-1.72-.71-2.54-.71-.52,0-.89.08-1.13.23-.24.15-.35.35-.35.6s.14.43.42.55c.28.12.73.25,1.35.38.7.15,1.28.31,1.74.48.46.17.86.44,1.19.81.34.37.5.88.5,1.51,0,.55-.15,1.05-.46,1.49-.31.45-.76.8-1.38,1.07-.61.27-1.36.4-2.23.4-.74,0-1.46-.09-2.16-.28Z"/>
      </g>
    </g>
  </g>
</svg>