<?xml version="1.0" encoding="UTF-8"?>
<svg id="Layer_2" data-name="Layer 2" xmlns="http://www.w3.org/2000/svg" viewBox="0 0 335.13 199.72">
  <defs>
    <style>
      .cls-1 {
        fill: #fff;
      }
    </style>
  </defs>
  <g id="Layer_1-2" data-name="Layer 1">
    <g>
      <path class="cls-1" d="m69.16,192.45c0-.26.02-.56.06-.86.11-.67.65-1.05,1.1-1.05.37,0,.67.24.67.71l-.04.62c0,2.28,1.78,3.03,4.02,3.03,2.88,0,6.47-1.25,7.93-2.15.88-.54,1.2-1.1,1.2-1.66,0-1.08-1.27-2.13-2.37-2.82-1.78-1.16-5.07-3.27-6.52-4.52-1.03-.88-1.46-1.78-1.46-2.69,0-4.88,12.9-9.72,17.89-9.72l.54.02c1.12.11,1.7.88,1.7,1.42,0,.3-.17.52-.52.52-.67-.06-1.12-.19-2.11-.19-2,0-4.52.39-6.06.9-4.24,1.44-9.31,3.87-9.31,6.67,0,.47.15.97.47,1.46,1.2,1.83,7.38,4.58,9.05,6.8.6.8.86,1.51.86,2.15,0,2.95-5.57,4.19-7.93,4.58-1.1.17-2.49.37-3.87.37-2.71,0-5.31-.71-5.31-3.59Z"/>
      <path class="cls-1" d="m88.86,191.76c-1.18-.43-1.61-1.53-1.61-2.88,0-1.81.77-4.04,1.46-5.63,0-.06-.02-.15-.02-.21,0-.19.06-.43.17-.67.37-.65.86-.88,1.25-.88.6.02,1.14.24,1.14.84,0,.13-.04.28-.13.43-.32.67-2.19,5.63-2.19,7.55,0,.56.19.75.47.75,1.38,0,3.59-4.3,5.35-9.35.19-.56.69-.82,1.14-.82s.86.26.86.77c-.11.9-.45,1.94-.97,3.2l.06-.09-.21.47c-.04.13-.09.24-.15.34-.43,1.1-1.12,2.97-1.12,3.96,0,.34.09.58.28.58.77,0,2.97-3.74,3.57-4.95.19-.39.45-.54.67-.54.3,0,.54.28.54.73,0,.22-.06.47-.19.75-1.16,2.47-2.64,4.73-4.32,4.73-.75,0-1.35-.43-1.61-1.27-.8,1.03-2.02,2.34-3.5,2.34-.3,0-.6-.07-.92-.17Z"/>
      <path class="cls-1" d="m106.99,191.5c0-.43.15-.77.37-1.03.62-2,2-6.75,2-8.86,0-.65-.13-1.03-.43-1.03-1.16.06-3.16,5.57-4.41,9.87-.15.47-.58.69-1.01.69-.47,0-.95-.28-.95-.84.06-1.03.92-5.48.92-7.87,0-.9-.11-1.25-.37-1.29-1.01,0-3.98,8.84-4.39,10.39-.13.54-.54.75-.95.75-.52,0-1.05-.37-1.05-.97l.02-.19c.41-2.69.73-5.46.99-8.15.04-.65.58-.95,1.05-.95s.9.28.9.84c-.06,1.2-.04.67-.15,1.83.77-2.04,1.81-4.26,3.2-4.26,1.51.09,2.04,1.53,2.19,3.59.71-1.74,1.89-4.13,3.55-4.13,1.83.09,2.41,1.55,2.41,3.53,0,3.01-1.42,7.05-1.91,8.43-.13.47-.6.75-1.03.75-.58,0-.97-.49-.97-1.1Z"/>
      <path class="cls-1" d="m117.68,192.52c-.88-.17-1.2-.97-1.2-2.02,0-.34.02-.71.09-1.08-.67.82-1.38,1.53-2.15,1.98-.37.24-.71.32-1.03.32-1.29,0-2.15-1.63-2.15-3.35,0-.32.02-.62.09-.95.49-2.6,1.87-5.07,4.26-6.34.71-.39,1.57-.6,2.34-.6,1.16,0,2.15.47,2.26,1.7.21.17.37.41.37.73l-.04.28c-.13.56-.41,1.14-.71,1.63-.24.56-2.09,5.01-2.09,6.51,0,.22.04.39.13.45l.13.04c.88,0,3.61-5.42,4.21-6.64.19-.39.45-.56.64-.56.28,0,.52.3.52.77,0,.22-.04.45-.15.73-1.35,3.53-3.31,6.41-5.2,6.41l-.3-.02Zm-4.45-2.04c1.25-.41,4.71-6.3,5.33-7.76,0,0,0-.02.02-.02l.04-.47c0-.58-.19-.82-.49-.82-.67,0-1.94,1.2-3.12,2.73-1.38,1.76-2.6,4.43-2.6,5.7,0,.43.15.71.49.71.09,0,.19-.02.32-.06Z"/>
      <path class="cls-1" d="m130.97,191.5c0-.43.15-.77.37-1.03.62-2,2-6.75,2-8.86,0-.65-.13-1.03-.43-1.03-1.16.06-3.16,5.57-4.41,9.87-.15.47-.58.69-1.01.69-.47,0-.95-.28-.95-.84.06-1.03.92-5.48.92-7.87,0-.9-.11-1.25-.37-1.29-1.01,0-3.98,8.84-4.39,10.39-.13.54-.54.75-.95.75-.52,0-1.05-.37-1.05-.97l.02-.19c.41-2.69.73-5.46.99-8.15.04-.65.58-.95,1.05-.95s.9.28.9.84c-.06,1.2-.04.67-.15,1.83.77-2.04,1.81-4.26,3.2-4.26,1.51.09,2.04,1.53,2.19,3.59.71-1.74,1.89-4.13,3.55-4.13,1.83.09,2.41,1.55,2.41,3.53,0,3.01-1.42,7.05-1.91,8.43-.13.47-.6.75-1.03.75-.58,0-.97-.49-.97-1.1Z"/>
      <path class="cls-1" d="m135.79,189.98c-.37-.67-.52-1.42-.52-2.19,0-2.62,1.85-5.48,3.83-6.32.39-.69,1.1-1.12,1.94-1.12.34,0,.71.09,1.1.26,1.27.58,1.91,2.19,1.91,3.91l-.02.56c.09.02.19.02.3.02.6,0,1.33-.3,1.76-.97.22-.32.43-.47.62-.47.24,0,.43.26.43.6,0,.24-.09.52-.28.8-.84,1.2-1.87,1.4-3.07,1.42-.45,1.83-1.44,3.57-3.48,4.67-.6.32-1.23.49-1.85.49-1.05,0-2.06-.54-2.67-1.66Zm5.27-2.13c.32-.56.54-1.03.75-1.68-1.2-.28-2.34-1.18-2.77-2.69-1.23,1.23-2.02,3.44-2.02,5.07,0,.39.04.77.15,1.08.24.71.58.99,1.01.99.86,0,2.02-1.27,2.88-2.77Zm1.31-4.39c0-.82-.15-1.57-.56-1.91-.19-.17-.37-.24-.52-.24-.39,0-.64.45-.64,1.05,0,.34.09.73.3,1.12.3.49.8,1.03,1.31,1.23.06-.41.11-.84.11-1.25Z"/>
      <path class="cls-1" d="m160.62,193.63c0-.24.09-.43.24-.58.56-3.01,2.06-8.17,3.94-14l-.82.04c-1.53.04-3.89.41-5.33.41-1.16,0-1.38-.37-1.38-.62,0-.49,1.12-.77,2.11-.97,1.14-.21,3.4-.49,6-.67.15-.41.28-.82.41-1.23.15-.56.64-.84,1.1-.84s.82.26.82.69c0,.32-.21.82-.39,1.27l2.32-.04c1.42,0,2.84.06,4.13.19.64.06.97.58.97,1.08s-.28.88-.82.88h-.15c-1.89-.19-3.59-.28-5.44-.28l-1.59.02c-1.53,4.95-3.78,12.77-4.09,15.18-.06.62-.52.95-.97.95-.67,0-.99-.47-1.05-1.48Z"/>
      <path class="cls-1" d="m166.84,189.98c-.37-.67-.52-1.42-.52-2.19,0-2.62,1.85-5.48,3.83-6.32.39-.69,1.1-1.12,1.94-1.12.34,0,.71.09,1.1.26,1.27.58,1.91,2.19,1.91,3.91l-.02.56c.09.02.19.02.3.02.6,0,1.33-.3,1.76-.97.22-.32.43-.47.62-.47.24,0,.43.26.43.6,0,.24-.09.52-.28.8-.84,1.2-1.87,1.4-3.07,1.42-.45,1.83-1.44,3.57-3.48,4.67-.6.32-1.23.49-1.85.49-1.05,0-2.06-.54-2.67-1.66Zm5.27-2.13c.32-.56.54-1.03.75-1.68-1.2-.28-2.34-1.18-2.77-2.69-1.23,1.23-2.02,3.44-2.02,5.07,0,.39.04.77.15,1.08.24.71.58.99,1.01.99.86,0,2.02-1.27,2.88-2.77Zm1.31-4.39c0-.82-.15-1.57-.56-1.91-.19-.17-.37-.24-.52-.24-.39,0-.64.45-.64,1.05,0,.34.09.73.3,1.12.3.49.8,1.03,1.31,1.23.06-.41.11-.84.11-1.25Z"/>
      <path class="cls-1" d="m181.31,193.46c.09-1.53.43-3.33.77-5.18-1.25,2.17-3.01,3.89-4.54,3.89-1.42,0-2.26-1.46-2.26-3.16,0-.34.04-.69.11-1.03.52-2.58,2.26-5.63,4.64-6.9.75-.43,1.51-.69,2.17-.69.58,0,1.08.21,1.46.69.49-1.89,1.03-3.7,1.53-5.2l.09-.17c.09-.41.45-.6.84-.6.62,0,1.08.39,1.12,1.14,0,.09,0,.19-.02.24-.04.37-.19.6-.39.75-1.57,4.84-3.14,11.29-4.06,16.08-.13.62-.52.92-.86.92-.32,0-.6-.26-.6-.77Zm-4-2.41c1.27-.43,5.07-6.11,5.63-7.48,0-.04.04-.04.04-.13.09-.37.11-.69.11-.92,0-.6-.21-.86-.56-.86-.71,0-1.98,1.08-3.07,2.47-1.42,1.83-2.9,4.97-2.9,6.32,0,.41.15.67.45.67.09,0,.17-.02.3-.06Z"/>
      <path class="cls-1" d="m194.17,188.43c-.95,1.71-2.02,3.4-2.52,3.4l-.13-.04c-.09-.06-.13-.24-.13-.45,0-1.51,1.85-5.96,2.09-6.51.3-.49.58-1.08.71-1.63l.04-.28c0-.32-.15-.56-.37-.73-.11-1.23-1.1-1.7-2.26-1.7-.77,0-1.63.22-2.34.6-2.39,1.27-3.76,3.74-4.26,6.34-.06.32-.09.62-.09.95,0,1.72.86,3.35,2.15,3.35.32,0,.67-.09,1.03-.32.77-.45,1.48-1.16,2.15-1.98-.06.37-.09.73-.09,1.08,0,1.05.32,1.85,1.2,2.02l.3.02c1.23,0,2.48-1.22,3.59-3.04-.48-.25-.84-.62-1.09-1.07Zm-7.25,2.04c-.13.04-.24.06-.32.06-.34,0-.49-.28-.49-.71,0-1.27,1.23-3.93,2.6-5.7,1.18-1.53,2.45-2.73,3.12-2.73.3,0,.49.24.49.82l-.04.47s-.02.02-.02.02c-.62,1.46-4.09,7.35-5.33,7.76Z"/>
      <path class="cls-1" d="m205.57,198.32c-1.01-1.29-1.51-2.58-1.51-3.74,0-1.63.97-3.01,2.88-3.85,1.42-.64,3.31-.99,5.07-1.16.28-.77.54-1.55.8-2.32-.95.99-2.09,1.85-3.29,1.85-1.91-.11-2.6-1.35-2.6-3.29s1.05-4.41,1.81-5.68c.17-.32.47-.45.77-.45,1.14,0,1.2,1.1,1.2,1.35v.06c-.04.77-.37,1.16-.8,1.23-.64,1.16-1.23,3.07-1.23,4.49,0,1.25.28,1.44.62,1.48,1.57,0,4.11-3.63,5.85-8.9.39-1.33.52-1.48.99-1.48.56,0,1.2.56,1.2,1.18-.04,1.08-.52,2.26-1.03,3.33-.56,1.78-1.33,4.43-2.19,7.01l2.54.02c.77.04,1.29.52,1.29.86,0,.24-.19.41-.67.41-.88,0-1.68-.04-2.62-.04h-.97c-.34.95-.69,1.89-1.05,2.82-.62,1.46-2.47,6.21-4.86,6.21-.71,0-1.44-.41-2.21-1.4Zm6.04-7.57c-2.56.17-4.71.6-5.38,1.72-.21.37-.34,1.23-.34,2.17,0,1.78.47,3.91,1.42,3.91,1.18,0,2.82-3.59,4.3-7.81Z"/>
      <path class="cls-1" d="m222.28,193.63c0-.24.09-.43.24-.58.56-3.01,2.06-8.17,3.94-14l-.82.04c-1.53.04-3.89.41-5.33.41-1.16,0-1.38-.37-1.38-.62,0-.49,1.12-.77,2.11-.97,1.14-.21,3.4-.49,6-.67.15-.41.28-.82.41-1.23.15-.56.64-.84,1.1-.84s.82.26.82.69c0,.32-.21.82-.39,1.27l2.32-.04c1.42,0,2.84.06,4.13.19.64.06.97.58.97,1.08s-.28.88-.82.88h-.15c-1.89-.19-3.59-.28-5.44-.28l-1.59.02c-1.53,4.95-3.78,12.77-4.09,15.18-.06.62-.52.95-.97.95-.67,0-.99-.47-1.05-1.48Z"/>
      <path class="cls-1" d="m228.5,189.98c-.37-.67-.52-1.42-.52-2.19,0-2.62,1.85-5.48,3.83-6.32.39-.69,1.1-1.12,1.94-1.12.34,0,.71.09,1.1.26,1.27.58,1.91,2.19,1.91,3.91l-.02.56c.09.02.19.02.3.02.6,0,1.33-.3,1.76-.97.22-.32.43-.47.62-.47.24,0,.43.26.43.6,0,.24-.09.52-.28.8-.84,1.2-1.87,1.4-3.07,1.42-.45,1.83-1.44,3.57-3.48,4.67-.6.32-1.23.49-1.85.49-1.05,0-2.06-.54-2.67-1.66Zm5.27-2.13c.32-.56.54-1.03.75-1.68-1.2-.28-2.34-1.18-2.77-2.69-1.23,1.23-2.02,3.44-2.02,5.07,0,.39.04.77.15,1.08.24.71.58.99,1.01.99.86,0,2.02-1.27,2.88-2.77Zm1.31-4.39c0-.82-.15-1.57-.56-1.91-.19-.17-.37-.24-.52-.24-.39,0-.64.45-.64,1.05,0,.34.09.73.3,1.12.3.49.8,1.03,1.31,1.23.06-.41.11-.84.11-1.25Z"/>
      <path class="cls-1" d="m242.97,193.46c.09-1.53.43-3.33.77-5.18-1.25,2.17-3.01,3.89-4.54,3.89-1.42,0-2.26-1.46-2.26-3.16,0-.34.04-.69.11-1.03.52-2.58,2.26-5.63,4.64-6.9.75-.43,1.51-.69,2.17-.69.58,0,1.08.21,1.46.69.49-1.89,1.03-3.7,1.53-5.2l.09-.17c.09-.41.45-.6.84-.6.62,0,1.08.39,1.12,1.14,0,.09,0,.19-.02.24-.04.37-.19.6-.39.75-1.57,4.84-3.14,11.29-4.06,16.08-.13.62-.52.92-.86.92-.32,0-.6-.26-.6-.77Zm-4-2.41c1.27-.43,5.07-6.11,5.63-7.48,0-.04.04-.04.04-.13.09-.37.11-.69.11-.92,0-.6-.21-.86-.56-.86-.71,0-1.98,1.08-3.07,2.47-1.42,1.83-2.9,4.97-2.9,6.32,0,.41.15.67.45.67.09,0,.17-.02.3-.06Z"/>
      <path class="cls-1" d="m247.49,189.98c-.37-.67-.52-1.42-.52-2.19,0-2.62,1.85-5.48,3.83-6.32.39-.69,1.1-1.12,1.94-1.12.34,0,.71.09,1.1.26,1.27.58,1.91,2.19,1.91,3.91l-.02.56c.09.02.19.02.3.02.6,0,1.33-.3,1.76-.97.22-.32.43-.47.62-.47.24,0,.43.26.43.6,0,.24-.09.52-.28.8-.84,1.2-1.87,1.4-3.07,1.42-.45,1.83-1.44,3.57-3.48,4.67-.6.32-1.23.49-1.85.49-1.05,0-2.06-.54-2.67-1.66Zm5.27-2.13c.32-.56.54-1.03.75-1.68-1.2-.28-2.34-1.18-2.77-2.69-1.23,1.23-2.02,3.44-2.02,5.07,0,.39.04.77.15,1.08.24.71.58.99,1.01.99.86,0,2.02-1.27,2.88-2.77Zm1.31-4.39c0-.82-.15-1.57-.56-1.91-.19-.17-.37-.24-.52-.24-.39,0-.65.45-.65,1.05,0,.34.09.73.3,1.12.3.49.8,1.03,1.31,1.23.06-.41.11-.84.11-1.25Z"/>
      <path class="cls-1" d="m258.81,185.08c-.24.24-.94.59-1.41.12-.47-.53.77-1.59,1-1.83l4.42-5.36c.77-.82,1.35-1.3,1.35-1.3.23-.24.82,0,1.24.53.47.47.71,1.12.47,1.36l-1.41,1.35c-1.24,1.41-2.89,3.95-2.24,6.66.35,1.71.18,3.06-.3,4.06-.29.53-.71.94-1.12,1.3-.41.29-.88.53-1.36.65-.82.18-1.65.06-2.3-.29-3.36-1.71-1.53-5.01-1.53-5.07.18-.29.71-.18,1.24.29.53.47.77,1.12.65,1.41,0,.06-.82,1.53-.71,1.59.23.12.71.12,1.18,0,.41-.06.82-.24,1.18-.53.35-.24.71-.65.88-1.06.41-.83.59-1.89.3-3.24,0-.77-.53-.82.88-3.42l-2.42,2.77Z"/>
      <path class="cls-1" d="m197.5,185.08c-.24.24-.94.59-1.41.12-.47-.53.77-1.59,1-1.83l4.42-5.36c.77-.82,1.35-1.3,1.35-1.3.23-.24.82,0,1.24.53.47.47.71,1.12.47,1.36l-1.41,1.35c-1.24,1.41-2.89,3.95-2.24,6.66.35,1.71.18,3.06-.3,4.06-.29.53-.71.94-1.12,1.3-.41.29-.88.53-1.36.65-.82.18-1.65.06-2.3-.29-3.36-1.71-1.53-5.01-1.53-5.07.18-.29.71-.18,1.24.29.53.47.77,1.12.65,1.41,0,.06-.82,1.53-.71,1.59.23.12.71.12,1.18,0,.41-.06.82-.24,1.18-.53.35-.24.71-.65.88-1.06.41-.83.59-1.89.3-3.24,0-.77-.53-.82.88-3.42l-2.42,2.77Z"/>
      <path class="cls-1" d="m147.28,185.08c-.24.24-.94.59-1.41.12-.47-.53.77-1.59,1-1.83l4.42-5.36c.77-.82,1.35-1.3,1.35-1.3.23-.24.82,0,1.24.53.47.47.71,1.12.47,1.36l-1.41,1.35c-1.24,1.41-2.89,3.95-2.24,6.66.35,1.71.18,3.06-.3,4.06-.29.53-.71.94-1.12,1.3-.41.29-.88.53-1.36.65-.82.18-1.65.06-2.3-.29-3.36-1.71-1.53-5.01-1.53-5.07.18-.29.71-.18,1.24.29.53.47.77,1.12.65,1.41,0,.06-.82,1.53-.71,1.59.23.12.71.12,1.18,0,.41-.06.82-.24,1.18-.53.35-.24.71-.65.88-1.06.41-.83.59-1.89.3-3.24,0-.77-.53-.82.88-3.42l-2.42,2.77Z"/>
      <g>
        <path class="cls-1" d="m175.18,129.82c12.69,1.3,17.01-2.16,21.48-4.18,4.47-2.02,14.13-9.95,16.73-34.32,1.15-11.82,7.79-39.36,9.8-47.44,2.02-8.07-.14-10.24-2.31-10.96-2.16-.72-5.77.87-7.35,5.05-1.59,4.18-5.48,17.59-7.21,20.76-1.73,3.17-2.45,3.89-3.17,3.6-.72-.29-.72-3.03-.29-6.78.43-3.75,1.87-15.43,3.17-22.06,1.3-6.63,4.76-22.49-2.59-25.09-3.03-.43-6.78,2.6-8.22,9.08-1.44,6.49-5.91,29.99-7.35,33.88-1.15,2.88-2.02,4.18-2.16-.43-.14-4.61,2.45-21.92,2.88-32.3.43-10.38.15-17.88-5.48-18.6-5.62-.72-8.07,6.63-8.65,12.69-.58,6.06-3.17,35.04-4.18,40.66-.58,4.18-1.15,6.63-2.45,1.3-1.3-5.33-2.16-24.94-3.32-32.15-1.15-7.21-3.32-14.56-7.64-14.13-4.33.43-6.2,6.78-6.06,13.12.15,6.34,1.59,29.7.72,40.37-.87,10.67-1.15,16.01-6.49,17.01-3.46.86-7.93-2.74-11.39-7.79s-12.98-11.97-18.89-9.66c-2.31,1.01-5.19,4.18-2.6,7.21,2.6,3.03,16.01,19.18,22.93,29.41,6.92,10.24,14.99,27.62,35.61,28.84,7.64,0,19.75-5.48,27.68-23.94,2.31-6.06,3.17-18.46,2.16-23.36-4.61,5.05-8.22,6.35-14.85,10.67-6.63,4.33-16.44,9.33-9.95,21.2,2.74-.87,5.91-2.88,9.08-6.06,3.17-3.17,7.79-10.67,8.79-13.27-.72,8.51-5.91,14.56-12.83,20.62-5.19,3.46-10.96,4.33-19.47-5.77-8.51-10.09-16.08-39.65,6.23-39.94,7.75.43,12.65,6.49,13.81,12.83,3.75-8.51,10.53-14.13,18.74-12.4,8.22,1.73,12.4,8.51,8.36,24.94-4.04,16.44-14.71,33.45-33.31,37.34Z"/>
        <path class="cls-1" d="m140,105.73c6.22,9.53,14.67,20.25,30.7,21.2,7.64,0,19.75-5.48,27.68-23.94,2.31-6.06,3.17-18.46,2.16-23.36-4.61,5.05-8.22,6.35-14.85,10.67-6.63,4.33-16.44,9.33-9.95,21.2,2.74-.87,5.91-2.88,9.08-6.06,3.17-3.17,7.79-10.67,8.79-13.27-.72,8.51-5.91,14.56-12.83,20.62-8.8,6.78-26.65,8.49-40.8-7.07Z"/>
      </g>
      <path class="cls-1" d="m108.58,164.38c-.38.49-.78.84-1.21,1.06-.43.22-.96.33-1.58.33-.98,0-1.81-.28-2.49-.83.49-1.37.9-2.79,1.23-4.24.33-1.45.61-2.76.83-3.94.38-.2.83-.37,1.36-.52.53-.14,1.06-.22,1.6-.22.69,0,1.29.15,1.81.47.52.31.78.86.78,1.66,0,.47-.07.98-.2,1.55-.13.56-.31,1.13-.53,1.7s-.47,1.11-.75,1.64c-.28.53-.56.98-.85,1.33Z"/>
      <path class="cls-1" d="m119.59,146.46c-.16-.24-.3-.58-.43-1-.13-.42-.2-.86-.2-1.33,0-.86.19-1.48.58-1.86.39-.38.89-.57,1.51-.57h14.49c.15.24.3.58.43,1,.13.42.2.86.2,1.33,0,.86-.19,1.48-.58,1.86-.39.38-.89.57-1.51.57h-3.69v15.36c-.24.07-.63.13-1.15.2-.52.07-1.04.1-1.55.1s-.96-.04-1.35-.12c-.39-.08-.71-.22-.98-.41-.27-.2-.47-.48-.6-.83-.13-.35-.2-.82-.2-1.4v-12.9h-4.99Z"/>
      <path class="cls-1" d="m137.73,146.03c.22-.07.57-.13,1.05-.2.48-.07.97-.1,1.48-.1s.92.03,1.31.1c.39.07.71.2.98.4.27.2.47.47.62.81.14.34.22.79.22,1.35v7.15c0,.91.22,1.56.66,1.94.44.39,1.09.58,1.93.58.51,0,.93-.04,1.25-.13.32-.09.57-.18.75-.27v-11.63c.22-.07.57-.13,1.05-.2.48-.07.97-.1,1.48-.1s.92.03,1.31.1c.39.07.71.2.98.4.27.2.47.47.61.81.14.34.22.79.22,1.35v10.1c0,1.11-.47,1.94-1.4,2.49-.78.49-1.7.86-2.78,1.11-1.08.25-2.24.38-3.51.38-1.2,0-2.3-.13-3.31-.4-1.01-.27-1.88-.68-2.61-1.23-.73-.55-1.3-1.27-1.7-2.14-.4-.87-.6-1.93-.6-3.17v-9.51Zm9.01-8.81c1.15,0,1.99.22,2.51.66.52.44.78.98.78,1.6,0,.58-.16,1.06-.47,1.45-.31.39-.82.77-1.53,1.15l-4.29,2.26c-.66-.07-1.23-.33-1.7-.8-.47-.47-.7-.96-.7-1.5,0-.27.07-.53.2-.8.13-.27.35-.51.66-.73l4.52-3.29Z"/>
      <path class="cls-1" d="m166.25,157.83c-.24-.55-.5-1.17-.78-1.86-.28-.69-.57-1.47-.86-2.36-.3-.89-.61-1.9-.93-3.04-.32-1.14-.66-2.45-1.01-3.94.31-.31.73-.58,1.25-.81.52-.23,1.09-.35,1.71-.35.78,0,1.42.16,1.93.48.51.32.89.93,1.13,1.81l2.63,9.14h.13c.27-.75.53-1.57.78-2.46.25-.89.5-1.8.75-2.74.24-.94.47-1.88.68-2.82.21-.94.39-1.87.55-2.78.8-.42,1.67-.63,2.63-.63.78,0,1.42.17,1.93.5.51.33.76.91.76,1.73,0,.6-.08,1.29-.23,2.08-.16.79-.36,1.62-.61,2.51-.25.89-.55,1.8-.9,2.74-.34.94-.7,1.87-1.08,2.78-.38.91-.76,1.77-1.16,2.58-.4.81-.79,1.53-1.16,2.18-.62,1.09-1.2,1.97-1.73,2.66-.53.69-1.04,1.22-1.53,1.61-.49.39-.98.65-1.46.8-.49.14-1,.22-1.53.22-.93,0-1.68-.28-2.26-.83-.58-.55-.92-1.27-1.03-2.16.71-.55,1.42-1.17,2.13-1.84.71-.68,1.35-1.37,1.93-2.08-.38-.11-.78-.37-1.21-.78-.43-.41-.9-1.18-1.41-2.31Z"/>
      <path class="cls-1" d="m197.23,162.48c-1.31,0-2.52-.18-3.64-.55-1.12-.37-2.09-.91-2.93-1.65-.83-.73-1.48-1.65-1.96-2.76-.48-1.11-.71-2.4-.71-3.89s.24-2.72.71-3.77c.48-1.05,1.1-1.92,1.88-2.59.78-.68,1.66-1.17,2.66-1.5,1-.32,2.02-.48,3.06-.48,1.17,0,2.24.18,3.21.53.96.35,1.79.84,2.49,1.46.7.62,1.24,1.36,1.63,2.23.39.86.58,1.81.58,2.82,0,.75-.21,1.33-.63,1.73-.42.4-1.01.65-1.76.76l-8.21,1.23c.24.73.74,1.28,1.5,1.65.75.37,1.62.55,2.59.55.91,0,1.77-.12,2.58-.35.81-.23,1.47-.5,1.98-.81.35.22.65.53.9.93.24.4.37.82.37,1.26,0,1-.47,1.74-1.4,2.23-.71.38-1.51.63-2.39.76s-1.72.2-2.49.2Zm-.93-13.06c-.53,0-.99.09-1.38.27-.39.18-.7.4-.95.68-.24.28-.43.59-.55.93-.12.34-.19.69-.22,1.05l5.68-.93c-.07-.44-.31-.89-.73-1.33-.42-.44-1.04-.66-1.86-.66Z"/>
      <path class="cls-1" d="m212.69,161.92c-.24.04-.6.1-1.08.18-.48.08-.96.12-1.45.12s-.92-.03-1.31-.1c-.39-.07-.71-.2-.98-.4-.27-.2-.47-.47-.61-.81-.14-.34-.22-.79-.22-1.35v-19.28c.24-.04.6-.1,1.08-.18.48-.08.96-.12,1.45-.12s.92.03,1.31.1c.39.07.71.2.98.4.27.2.47.47.61.81.14.34.22.79.22,1.35v19.28Z"/>
      <path class="cls-1" d="m229.14,161.82c-.24.07-.63.13-1.15.2-.52.07-1.04.1-1.55.1s-.96-.04-1.35-.12c-.39-.08-.71-.22-.98-.41-.27-.2-.47-.48-.6-.83-.13-.35-.2-.82-.2-1.4v-15.66c0-.47.13-.83.38-1.08.25-.25.6-.46,1.05-.61.75-.27,1.61-.46,2.58-.58.96-.12,1.93-.18,2.91-.18,3.06,0,5.4.65,7.01,1.96,1.62,1.31,2.43,3.08,2.43,5.32,0,1.09-.17,2.07-.52,2.94-.34.88-.85,1.63-1.53,2.26-.68.63-1.53,1.12-2.56,1.46-1.03.34-2.22.52-3.57.52h-2.36v6.12Zm1.73-10.67c.93,0,1.65-.22,2.14-.65.5-.43.75-1.09.75-1.98s-.26-1.49-.78-1.94c-.52-.45-1.28-.68-2.28-.68-.36,0-.65,0-.88.02-.23.01-.47.04-.71.08v5.15h1.76Z"/>
      <path class="cls-1" d="m247.95,161.92c-.24.04-.6.1-1.08.18-.48.08-.96.12-1.45.12s-.92-.03-1.31-.1c-.39-.07-.71-.2-.98-.4-.27-.2-.47-.47-.61-.81-.14-.34-.22-.79-.22-1.35v-19.28c.24-.04.6-.1,1.08-.18.48-.08.96-.12,1.45-.12s.92.03,1.31.1c.39.07.71.2.98.4.27.2.47.47.61.81.14.34.22.79.22,1.35v19.28Z"/>
      <path class="cls-1" d="m258.16,145.3c1.2,0,2.29.12,3.27.37.99.24,1.83.61,2.53,1.11.7.5,1.23,1.13,1.61,1.89.38.76.57,1.67.57,2.71v7.45c0,.58-.16,1.05-.48,1.41-.32.37-.7.68-1.15.95-1.44.86-3.47,1.3-6.08,1.3-1.17,0-2.23-.11-3.17-.33-.94-.22-1.75-.55-2.43-1-.68-.44-1.2-1.01-1.56-1.7-.37-.69-.55-1.48-.55-2.39,0-1.53.45-2.7,1.36-3.52.91-.82,2.31-1.33,4.22-1.53l4.35-.47v-.23c0-.64-.28-1.1-.85-1.38-.57-.28-1.38-.42-2.44-.42-.84,0-1.66.09-2.46.27-.8.18-1.52.4-2.16.66-.29-.2-.53-.5-.73-.91-.2-.41-.3-.84-.3-1.28,0-.58.14-1.04.42-1.38.28-.34.7-.64,1.28-.88.64-.24,1.4-.42,2.28-.53.88-.11,1.7-.17,2.48-.17Zm.27,13.06c.38,0,.79-.04,1.25-.12.45-.08.79-.18,1.01-.32v-2.66l-2.39.2c-.62.04-1.13.18-1.53.4-.4.22-.6.55-.6,1s.17.8.52,1.08c.34.28.93.42,1.75.42Z"/>
      <path class="cls-1" d="m279.83,151.71c0-.69-.19-1.19-.58-1.51-.39-.32-.91-.48-1.58-.48-.44,0-.88.06-1.31.17-.43.11-.8.28-1.11.5v11.53c-.22.07-.57.13-1.05.2-.48.07-.97.1-1.48.1s-.93-.03-1.31-.1c-.39-.07-.71-.2-.98-.4-.27-.2-.47-.47-.62-.81-.14-.34-.22-.79-.22-1.35v-9.97c0-.6.13-1.08.38-1.46.25-.38.6-.72,1.05-1.03.75-.53,1.7-.96,2.84-1.3,1.14-.33,2.41-.5,3.81-.5,2.5,0,4.43.55,5.78,1.64,1.35,1.1,2.03,2.62,2.03,4.57v10.4c-.22.07-.57.13-1.05.2-.48.07-.97.1-1.48.1s-.93-.03-1.31-.1c-.39-.07-.71-.2-.98-.4-.27-.2-.47-.47-.61-.81-.14-.34-.22-.79-.22-1.35v-7.84Z"/>
      <path class="cls-1" d="m297.51,162.48c-1.31,0-2.52-.18-3.64-.55-1.12-.37-2.09-.91-2.93-1.65-.83-.73-1.48-1.65-1.96-2.76-.48-1.11-.71-2.4-.71-3.89s.24-2.72.71-3.77c.48-1.05,1.1-1.92,1.88-2.59.78-.68,1.66-1.17,2.66-1.5,1-.32,2.02-.48,3.06-.48,1.17,0,2.24.18,3.21.53.96.35,1.79.84,2.49,1.46.7.62,1.24,1.36,1.63,2.23.39.86.58,1.81.58,2.82,0,.75-.21,1.33-.63,1.73-.42.4-1.01.65-1.76.76l-8.21,1.23c.24.73.74,1.28,1.5,1.65.75.37,1.62.55,2.59.55.91,0,1.77-.12,2.58-.35.81-.23,1.47-.5,1.98-.81.35.22.65.53.9.93.24.4.37.82.37,1.26,0,1-.47,1.74-1.4,2.23-.71.38-1.51.63-2.39.76s-1.72.2-2.49.2Zm-.93-13.06c-.53,0-.99.09-1.38.27-.39.18-.7.4-.95.68-.24.28-.43.59-.55.93-.12.34-.19.69-.22,1.05l5.68-.93c-.07-.44-.31-.89-.73-1.33-.42-.44-1.04-.66-1.86-.66Z"/>
      <path class="cls-1" d="m312.87,156.4c0,.58.18.99.55,1.23.37.24.88.37,1.55.37.33,0,.68-.03,1.03-.08.35-.05.66-.13.93-.22.2.24.37.52.52.81.14.3.22.66.22,1.08,0,.84-.32,1.53-.95,2.06-.63.53-1.75.8-3.34.8-1.95,0-3.45-.44-4.5-1.33-1.05-.89-1.58-2.33-1.58-4.32v-14.23c.24-.07.59-.14,1.05-.22.45-.08.94-.12,1.45-.12.97,0,1.73.17,2.28.52.54.34.81,1.07.81,2.18v2.13h4.35c.13.24.26.55.38.91.12.37.18.77.18,1.21,0,.78-.17,1.34-.52,1.68-.34.34-.8.52-1.38.52h-3.02v5.02Z"/>
      <path class="cls-1" d="m327.16,145.3c1.2,0,2.29.12,3.27.37.99.24,1.83.61,2.53,1.11.7.5,1.23,1.13,1.61,1.89.38.76.57,1.67.57,2.71v7.45c0,.58-.16,1.05-.48,1.41-.32.37-.7.68-1.15.95-1.44.86-3.47,1.3-6.08,1.3-1.17,0-2.23-.11-3.17-.33-.94-.22-1.75-.55-2.43-1-.68-.44-1.2-1.01-1.56-1.7-.37-.69-.55-1.48-.55-2.39,0-1.53.45-2.7,1.36-3.52.91-.82,2.31-1.33,4.22-1.53l4.35-.47v-.23c0-.64-.28-1.1-.85-1.38-.57-.28-1.38-.42-2.44-.42-.84,0-1.66.09-2.46.27-.8.18-1.52.4-2.16.66-.29-.2-.53-.5-.73-.91-.2-.41-.3-.84-.3-1.28,0-.58.14-1.04.42-1.38.28-.34.7-.64,1.28-.88.64-.24,1.4-.42,2.28-.53.88-.11,1.7-.17,2.48-.17Zm.27,13.06c.38,0,.79-.04,1.25-.12.45-.08.79-.18,1.01-.32v-2.66l-2.39.2c-.62.04-1.13.18-1.53.4-.4.22-.6.55-.6,1s.17.8.52,1.08c.34.28.92.42,1.75.42Z"/>
      <g>
        <path class="cls-1" d="m34.95,142.86h10.53c1.75,0,3.14.55,4.18,1.28.82.58,1.5,1.35,1.66,2.61.16,1.21-.09,2.38-.76,3.15-.75.85-1.11,1.04-1.94,1.6.8.29,1.68.59,2.3,1.36.62.76,1.02,1.65,1.02,2.81s-.18,2.18-.62,2.93c-.44.75-1.24,1.38-2.01,1.81-.47.27-1.18.47-2.14.59-1.27.17-2.11.25-2.52.25h-9.71v-18.38Zm5.8,7.54h2.43c.88,0,1.44-.03,1.83-.25.69-.39.9-.93.9-1.5,0-.53-.12-1.04-.53-1.37-.35-.29-1.44-.28-2.29-.28h-2.34v3.41Zm0,6.78h2.74c1.4,0,2.07-.25,2.47-.59.4-.34.6-.8.6-1.38,0-.54-.2-.97-.59-1.29-.39-.33-.97-.49-2.49-.49h-2.72v3.75Z"/>
        <path class="cls-1" d="m58.75,151.86h-4.9c0-.67.21-1.41.54-1.91.4-.6.8-.95,1.45-1.31.47-.26,1.2-.53,2.01-.67.82-.14,1.61-.29,2.56-.29,1.53,0,2.77-.03,3.7.14.93.17,1.95.58,2.57,1.12.43.38.83.97,1.02,1.8.19.86.17,1.82.17,2.45v4.69c0,.63,0,1.52,0,2.03,0,.2.11.65.72,1.13v.24h-5.35c0-.41.04-1.53-.02-1.91-.67.64-1.35,1.09-1.98,1.43-.8.44-2.03.85-3.23.85-1.59,0-2.97-.32-3.79-1.05-.82-.74-1.29-1.61-1.29-2.69,0-1.01.27-2.12.87-2.76.82-.87,1.87-1.21,3.47-1.52,1.91-.38,2.57-.23,3.14-.38.57-.15,1.5-.27,2.11-.78.49-.42.24-1.27-.02-1.52-.26-.25-.73-.46-1.38-.51-.93-.07-1.36.11-1.78.38-.33.21-.47.45-.58,1.03Zm4.02,2.85c-.4.37-.63.62-1.42.85-1.04.3-1.55.31-1.94.44-.42.15-.97.37-1.09,1.2-.09.6-.01.93.27,1.19.28.25.92.58,1.46.58s.99-.02,1.65-.43c.48-.3.76-.84.92-1.26.21-.56.21-.93.21-1.56l-.06-1.01Z"/>
        <path class="cls-1" d="m79.62,148.03h4.47v12.1s-.13.96-.13.96c-.13.81-.11.94-.41,1.68-.33.8-.68,1.26-1.23,1.74-.64.56-1.44.9-2.35,1.11-1.14.27-2.21.35-3.38.31-1.72-.05-2.9-.23-4.09-.74-.86-.37-1.5-.74-2.19-1.8-.09-.13-.23-.46-.33-1.06h5.17c.13.24.14.36.4.53.38.24.76.41,1.33.41.73,0,1.26-.12,1.62-.5.36-.37.71-1,.71-1.94v-2.19c-.51.57-1.06,1.11-1.56,1.37-.78.4-1.63.6-2.54.6-1.78,0-3.43-.63-4.52-2.11-.78-1.05-1.28-2.52-1.28-4.25,0-1.98.66-3.52,1.56-4.65.99-1.25,2.55-1.93,4.17-1.93,1.15,0,1.88.25,2.55.59.67.33,1.34.96,2.02,1.71v-1.95Zm-5.36,6.34c0,.92.43,1.72.83,2.17.41.44.94.73,1.61.74.8.01,1.41-.39,1.84-.85.43-.46.68-1.26.68-2.19s-.08-1.85-.67-2.42c-.48-.47-.79-.71-1.65-.74-1.4-.04-1.81.51-2.07.91-.33.49-.57,1.34-.57,2.38Z"/>
        <path class="cls-1" d="m85.46,154.6c.09-2.34.59-3.27,1.74-4.77,1.4-1.36,3.46-2.14,5.81-2.14,2.68,0,4.67.65,6.04,2.2,1.1,1.25,1.65,2.8,1.65,4.63,0,2.06-.68,3.84-2.04,5.15-1.37,1.32-3.26,1.97-5.67,1.97-2.15,0-3.89-.55-5.22-1.64-1.63-1.35-2.39-3.21-2.31-5.4Zm4.95-.02c0,1.19.3,2.26.78,2.83.48.57,1.07.95,1.8.96,1,.02,1.52-.33,2-.89.47-.56.74-1.7.74-2.94,0-1.16-.25-2.2-.69-2.8-.56-.76-1.26-.98-1.96-.98-.75,0-1.57.4-2.03,1.13-.4.64-.63,1.51-.63,2.69Zm2.95-12.14h4.98l-4.36,3.61-3.14-.02,2.52-3.59Z"/>
        <polygon class="cls-1" points="22.61 134.74 16.01 134.74 0 161.25 31.18 161.25 20.22 142.58 16.81 148.35 21.09 155.54 10.13 155.54 22.61 134.74"/>
      </g>
    </g>
  </g>
</svg>